M48
;GenerationSoftware,Autodesk,EAGLE,9.3.0*%
;CreationDate,2019-01-26T10:29:26Z*%
FMAT,2
ICI,OFF
METRIC,TZ,000.000
T3C0.813
T2C1.118
%
G90
M71
T2
X10160Y13970
X10160Y19050
T3
X17780Y17780
X27958Y20320
X27922Y17780
X13970Y17780
X13970Y15240
X13970Y21590
X13970Y19050
X27940Y12700
X27940Y15240
X17780Y20320
X13970Y13970
X25400Y20320
X25400Y17780
X17780Y12700
X17780Y15240
X25400Y15240
X25400Y12700
X13970Y11430
M30