G04 EAGLE Gerber RS-274X export*
G75*
%MOMM*%
%FSLAX34Y34*%
%LPD*%
%INSilkscreen Top*%
%IPPOS*%
%AMOC8*
5,1,8,0,0,1.08239X$1,22.5*%
G01*
%ADD10C,0.152400*%
%ADD11C,0.254000*%
%ADD12C,0.127000*%
%ADD13C,0.203200*%
%ADD14C,0.508000*%


D10*
X154940Y148590D02*
X154940Y105410D01*
X124460Y105410D02*
X124460Y148590D01*
X127000Y102870D02*
X152400Y102870D01*
X152400Y151130D02*
X127000Y151130D01*
X154940Y105410D02*
X154938Y105310D01*
X154932Y105211D01*
X154922Y105111D01*
X154909Y105013D01*
X154891Y104914D01*
X154870Y104817D01*
X154845Y104721D01*
X154816Y104625D01*
X154783Y104531D01*
X154747Y104438D01*
X154707Y104347D01*
X154663Y104257D01*
X154616Y104169D01*
X154566Y104083D01*
X154512Y103999D01*
X154455Y103917D01*
X154395Y103838D01*
X154331Y103760D01*
X154265Y103686D01*
X154196Y103614D01*
X154124Y103545D01*
X154050Y103479D01*
X153972Y103415D01*
X153893Y103355D01*
X153811Y103298D01*
X153727Y103244D01*
X153641Y103194D01*
X153553Y103147D01*
X153463Y103103D01*
X153372Y103063D01*
X153279Y103027D01*
X153185Y102994D01*
X153089Y102965D01*
X152993Y102940D01*
X152896Y102919D01*
X152797Y102901D01*
X152699Y102888D01*
X152599Y102878D01*
X152500Y102872D01*
X152400Y102870D01*
X154940Y148590D02*
X154938Y148690D01*
X154932Y148789D01*
X154922Y148889D01*
X154909Y148987D01*
X154891Y149086D01*
X154870Y149183D01*
X154845Y149279D01*
X154816Y149375D01*
X154783Y149469D01*
X154747Y149562D01*
X154707Y149653D01*
X154663Y149743D01*
X154616Y149831D01*
X154566Y149917D01*
X154512Y150001D01*
X154455Y150083D01*
X154395Y150162D01*
X154331Y150240D01*
X154265Y150314D01*
X154196Y150386D01*
X154124Y150455D01*
X154050Y150521D01*
X153972Y150585D01*
X153893Y150645D01*
X153811Y150702D01*
X153727Y150756D01*
X153641Y150806D01*
X153553Y150853D01*
X153463Y150897D01*
X153372Y150937D01*
X153279Y150973D01*
X153185Y151006D01*
X153089Y151035D01*
X152993Y151060D01*
X152896Y151081D01*
X152797Y151099D01*
X152699Y151112D01*
X152599Y151122D01*
X152500Y151128D01*
X152400Y151130D01*
X124460Y105410D02*
X124462Y105310D01*
X124468Y105211D01*
X124478Y105111D01*
X124491Y105013D01*
X124509Y104914D01*
X124530Y104817D01*
X124555Y104721D01*
X124584Y104625D01*
X124617Y104531D01*
X124653Y104438D01*
X124693Y104347D01*
X124737Y104257D01*
X124784Y104169D01*
X124834Y104083D01*
X124888Y103999D01*
X124945Y103917D01*
X125005Y103838D01*
X125069Y103760D01*
X125135Y103686D01*
X125204Y103614D01*
X125276Y103545D01*
X125350Y103479D01*
X125428Y103415D01*
X125507Y103355D01*
X125589Y103298D01*
X125673Y103244D01*
X125759Y103194D01*
X125847Y103147D01*
X125937Y103103D01*
X126028Y103063D01*
X126121Y103027D01*
X126215Y102994D01*
X126311Y102965D01*
X126407Y102940D01*
X126504Y102919D01*
X126603Y102901D01*
X126701Y102888D01*
X126801Y102878D01*
X126900Y102872D01*
X127000Y102870D01*
X124460Y148590D02*
X124462Y148690D01*
X124468Y148789D01*
X124478Y148889D01*
X124491Y148987D01*
X124509Y149086D01*
X124530Y149183D01*
X124555Y149279D01*
X124584Y149375D01*
X124617Y149469D01*
X124653Y149562D01*
X124693Y149653D01*
X124737Y149743D01*
X124784Y149831D01*
X124834Y149917D01*
X124888Y150001D01*
X124945Y150083D01*
X125005Y150162D01*
X125069Y150240D01*
X125135Y150314D01*
X125204Y150386D01*
X125276Y150455D01*
X125350Y150521D01*
X125428Y150585D01*
X125507Y150645D01*
X125589Y150702D01*
X125673Y150756D01*
X125759Y150806D01*
X125847Y150853D01*
X125937Y150897D01*
X126028Y150937D01*
X126121Y150973D01*
X126215Y151006D01*
X126311Y151035D01*
X126407Y151060D01*
X126504Y151081D01*
X126603Y151099D01*
X126701Y151112D01*
X126801Y151122D01*
X126900Y151128D01*
X127000Y151130D01*
X139700Y124460D02*
X139700Y123190D01*
D11*
X139700Y124460D02*
X147320Y124460D01*
X139700Y124460D02*
X132080Y124460D01*
X139700Y129540D02*
X147320Y129540D01*
X139700Y129540D02*
X132080Y129540D01*
D10*
X139700Y129540D02*
X139700Y130810D01*
D12*
X169545Y132043D02*
X169545Y129503D01*
X169543Y129403D01*
X169537Y129304D01*
X169527Y129204D01*
X169514Y129106D01*
X169496Y129007D01*
X169475Y128910D01*
X169450Y128814D01*
X169421Y128718D01*
X169388Y128624D01*
X169352Y128531D01*
X169312Y128440D01*
X169268Y128350D01*
X169221Y128262D01*
X169171Y128176D01*
X169117Y128092D01*
X169060Y128010D01*
X169000Y127931D01*
X168936Y127853D01*
X168870Y127779D01*
X168801Y127707D01*
X168729Y127638D01*
X168655Y127572D01*
X168577Y127508D01*
X168498Y127448D01*
X168416Y127391D01*
X168332Y127337D01*
X168246Y127287D01*
X168158Y127240D01*
X168068Y127196D01*
X167977Y127156D01*
X167884Y127120D01*
X167790Y127087D01*
X167694Y127058D01*
X167598Y127033D01*
X167501Y127012D01*
X167402Y126994D01*
X167304Y126981D01*
X167204Y126971D01*
X167105Y126965D01*
X167005Y126963D01*
X160655Y126963D01*
X160555Y126965D01*
X160456Y126971D01*
X160356Y126981D01*
X160258Y126994D01*
X160159Y127012D01*
X160062Y127033D01*
X159966Y127058D01*
X159870Y127087D01*
X159776Y127120D01*
X159683Y127156D01*
X159592Y127196D01*
X159502Y127240D01*
X159414Y127287D01*
X159328Y127337D01*
X159244Y127391D01*
X159162Y127448D01*
X159083Y127508D01*
X159005Y127572D01*
X158931Y127638D01*
X158859Y127707D01*
X158790Y127779D01*
X158724Y127853D01*
X158660Y127931D01*
X158600Y128010D01*
X158543Y128092D01*
X158489Y128176D01*
X158439Y128262D01*
X158392Y128350D01*
X158348Y128440D01*
X158308Y128531D01*
X158272Y128624D01*
X158239Y128718D01*
X158210Y128814D01*
X158185Y128910D01*
X158164Y129007D01*
X158146Y129106D01*
X158133Y129204D01*
X158123Y129304D01*
X158117Y129403D01*
X158115Y129503D01*
X158115Y132043D01*
X160655Y136525D02*
X158115Y139700D01*
X169545Y139700D01*
X169545Y136525D02*
X169545Y142875D01*
D11*
X76200Y146050D02*
X76200Y133350D01*
X76200Y184150D02*
X76200Y196850D01*
X82550Y190500D02*
X69850Y190500D01*
D10*
X76200Y208280D02*
X83820Y215900D01*
X119380Y215900D01*
X127000Y208280D01*
X127000Y121920D01*
X119380Y114300D01*
X83820Y114300D01*
X76200Y121920D01*
D13*
X76793Y157057D02*
X76793Y160613D01*
X76793Y157057D02*
X76791Y156962D01*
X76785Y156866D01*
X76776Y156771D01*
X76762Y156677D01*
X76745Y156583D01*
X76724Y156490D01*
X76699Y156397D01*
X76671Y156306D01*
X76639Y156216D01*
X76603Y156128D01*
X76564Y156041D01*
X76521Y155955D01*
X76475Y155871D01*
X76426Y155790D01*
X76373Y155710D01*
X76317Y155633D01*
X76259Y155557D01*
X76197Y155485D01*
X76132Y155415D01*
X76064Y155347D01*
X75994Y155282D01*
X75922Y155220D01*
X75846Y155162D01*
X75769Y155106D01*
X75689Y155053D01*
X75607Y155004D01*
X75524Y154958D01*
X75438Y154915D01*
X75351Y154876D01*
X75263Y154840D01*
X75173Y154808D01*
X75082Y154780D01*
X74989Y154755D01*
X74896Y154734D01*
X74802Y154717D01*
X74708Y154703D01*
X74613Y154694D01*
X74517Y154688D01*
X74422Y154686D01*
X73829Y154686D01*
X73722Y154688D01*
X73615Y154694D01*
X73509Y154703D01*
X73403Y154717D01*
X73297Y154734D01*
X73192Y154755D01*
X73088Y154780D01*
X72985Y154809D01*
X72883Y154841D01*
X72782Y154877D01*
X72683Y154917D01*
X72585Y154960D01*
X72489Y155007D01*
X72394Y155057D01*
X72301Y155110D01*
X72211Y155167D01*
X72122Y155227D01*
X72036Y155290D01*
X71952Y155356D01*
X71870Y155426D01*
X71791Y155498D01*
X71715Y155573D01*
X71641Y155651D01*
X71571Y155731D01*
X71503Y155814D01*
X71438Y155899D01*
X71377Y155986D01*
X71318Y156076D01*
X71263Y156168D01*
X71211Y156261D01*
X71163Y156357D01*
X71118Y156454D01*
X71076Y156552D01*
X71039Y156652D01*
X71004Y156754D01*
X70974Y156856D01*
X70947Y156960D01*
X70924Y157064D01*
X70905Y157170D01*
X70890Y157276D01*
X70878Y157382D01*
X70870Y157489D01*
X70866Y157596D01*
X70866Y157702D01*
X70870Y157809D01*
X70878Y157916D01*
X70890Y158022D01*
X70905Y158128D01*
X70924Y158234D01*
X70947Y158338D01*
X70974Y158442D01*
X71004Y158544D01*
X71039Y158646D01*
X71076Y158746D01*
X71118Y158844D01*
X71163Y158941D01*
X71211Y159037D01*
X71263Y159131D01*
X71318Y159222D01*
X71377Y159312D01*
X71438Y159399D01*
X71503Y159484D01*
X71571Y159567D01*
X71641Y159647D01*
X71715Y159725D01*
X71791Y159800D01*
X71870Y159872D01*
X71952Y159942D01*
X72036Y160008D01*
X72122Y160071D01*
X72211Y160131D01*
X72301Y160188D01*
X72394Y160241D01*
X72489Y160291D01*
X72585Y160338D01*
X72683Y160381D01*
X72782Y160421D01*
X72883Y160457D01*
X72985Y160489D01*
X73088Y160518D01*
X73192Y160543D01*
X73297Y160564D01*
X73403Y160581D01*
X73509Y160595D01*
X73615Y160604D01*
X73722Y160610D01*
X73829Y160612D01*
X73829Y160613D02*
X76793Y160613D01*
X76793Y160612D02*
X76928Y160610D01*
X77064Y160604D01*
X77199Y160595D01*
X77333Y160581D01*
X77468Y160564D01*
X77601Y160543D01*
X77735Y160518D01*
X77867Y160489D01*
X77998Y160456D01*
X78129Y160420D01*
X78258Y160380D01*
X78386Y160336D01*
X78513Y160289D01*
X78639Y160238D01*
X78762Y160184D01*
X78885Y160126D01*
X79005Y160064D01*
X79124Y159999D01*
X79241Y159931D01*
X79356Y159859D01*
X79469Y159785D01*
X79580Y159707D01*
X79688Y159625D01*
X79794Y159541D01*
X79898Y159454D01*
X79999Y159364D01*
X80097Y159271D01*
X80193Y159175D01*
X80286Y159077D01*
X80376Y158976D01*
X80463Y158872D01*
X80547Y158766D01*
X80629Y158658D01*
X80707Y158547D01*
X80781Y158434D01*
X80853Y158319D01*
X80921Y158202D01*
X80986Y158083D01*
X81048Y157963D01*
X81106Y157840D01*
X81160Y157717D01*
X81211Y157591D01*
X81258Y157464D01*
X81302Y157336D01*
X81342Y157207D01*
X81378Y157076D01*
X81411Y156945D01*
X81440Y156813D01*
X81465Y156679D01*
X81486Y156546D01*
X81503Y156411D01*
X81517Y156277D01*
X81526Y156142D01*
X81532Y156006D01*
X81534Y155871D01*
X81534Y169079D02*
X70866Y165523D01*
X70866Y172635D02*
X81534Y169079D01*
D12*
X56515Y146685D02*
X56515Y144780D01*
X56515Y146685D02*
X62865Y146685D01*
X62865Y142875D01*
X62863Y142775D01*
X62857Y142676D01*
X62847Y142576D01*
X62834Y142478D01*
X62816Y142379D01*
X62795Y142282D01*
X62770Y142186D01*
X62741Y142090D01*
X62708Y141996D01*
X62672Y141903D01*
X62632Y141812D01*
X62588Y141722D01*
X62541Y141634D01*
X62491Y141548D01*
X62437Y141464D01*
X62380Y141382D01*
X62320Y141303D01*
X62256Y141225D01*
X62190Y141151D01*
X62121Y141079D01*
X62049Y141010D01*
X61975Y140944D01*
X61897Y140880D01*
X61818Y140820D01*
X61736Y140763D01*
X61652Y140709D01*
X61566Y140659D01*
X61478Y140612D01*
X61388Y140568D01*
X61297Y140528D01*
X61204Y140492D01*
X61110Y140459D01*
X61014Y140430D01*
X60918Y140405D01*
X60821Y140384D01*
X60722Y140366D01*
X60624Y140353D01*
X60524Y140343D01*
X60425Y140337D01*
X60325Y140335D01*
X53975Y140335D01*
X53875Y140337D01*
X53776Y140343D01*
X53676Y140353D01*
X53578Y140366D01*
X53479Y140384D01*
X53382Y140405D01*
X53286Y140430D01*
X53190Y140459D01*
X53096Y140492D01*
X53003Y140528D01*
X52912Y140568D01*
X52822Y140612D01*
X52734Y140659D01*
X52648Y140709D01*
X52564Y140763D01*
X52482Y140820D01*
X52403Y140880D01*
X52325Y140944D01*
X52251Y141010D01*
X52179Y141079D01*
X52110Y141151D01*
X52044Y141225D01*
X51980Y141303D01*
X51920Y141382D01*
X51863Y141464D01*
X51809Y141548D01*
X51759Y141634D01*
X51712Y141722D01*
X51668Y141812D01*
X51628Y141903D01*
X51592Y141996D01*
X51559Y142090D01*
X51530Y142186D01*
X51505Y142282D01*
X51484Y142379D01*
X51466Y142478D01*
X51453Y142576D01*
X51443Y142676D01*
X51437Y142775D01*
X51435Y142875D01*
X51435Y146685D01*
X53975Y152146D02*
X51435Y155321D01*
X62865Y155321D01*
X62865Y152146D02*
X62865Y158496D01*
D10*
X186690Y114300D02*
X186690Y215900D01*
X245110Y215900D02*
X245110Y114300D01*
X245110Y215900D02*
X186690Y215900D01*
X186690Y114300D02*
X205740Y114300D01*
X226060Y114300D02*
X245110Y114300D01*
X226060Y114300D02*
X226057Y114547D01*
X226048Y114795D01*
X226033Y115042D01*
X226012Y115288D01*
X225985Y115534D01*
X225952Y115779D01*
X225913Y116024D01*
X225868Y116267D01*
X225817Y116509D01*
X225760Y116750D01*
X225698Y116989D01*
X225629Y117227D01*
X225555Y117463D01*
X225475Y117697D01*
X225390Y117929D01*
X225298Y118159D01*
X225202Y118387D01*
X225099Y118612D01*
X224992Y118835D01*
X224878Y119055D01*
X224760Y119272D01*
X224636Y119487D01*
X224507Y119698D01*
X224373Y119906D01*
X224234Y120111D01*
X224090Y120312D01*
X223942Y120510D01*
X223788Y120704D01*
X223630Y120894D01*
X223467Y121080D01*
X223300Y121262D01*
X223128Y121440D01*
X222952Y121614D01*
X222772Y121784D01*
X222587Y121949D01*
X222399Y122109D01*
X222207Y122265D01*
X222011Y122417D01*
X221812Y122563D01*
X221609Y122705D01*
X221402Y122841D01*
X221193Y122973D01*
X220980Y123099D01*
X220764Y123220D01*
X220546Y123336D01*
X220324Y123446D01*
X220100Y123551D01*
X219874Y123651D01*
X219645Y123745D01*
X219414Y123833D01*
X219180Y123916D01*
X218945Y123993D01*
X218708Y124064D01*
X218470Y124130D01*
X218230Y124189D01*
X217988Y124243D01*
X217745Y124291D01*
X217502Y124333D01*
X217257Y124369D01*
X217011Y124399D01*
X216765Y124423D01*
X216518Y124441D01*
X216271Y124453D01*
X216024Y124459D01*
X215776Y124459D01*
X215529Y124453D01*
X215282Y124441D01*
X215035Y124423D01*
X214789Y124399D01*
X214543Y124369D01*
X214298Y124333D01*
X214055Y124291D01*
X213812Y124243D01*
X213570Y124189D01*
X213330Y124130D01*
X213092Y124064D01*
X212855Y123993D01*
X212620Y123916D01*
X212386Y123833D01*
X212155Y123745D01*
X211926Y123651D01*
X211700Y123551D01*
X211476Y123446D01*
X211254Y123336D01*
X211036Y123220D01*
X210820Y123099D01*
X210607Y122973D01*
X210398Y122841D01*
X210191Y122705D01*
X209988Y122563D01*
X209789Y122417D01*
X209593Y122265D01*
X209401Y122109D01*
X209213Y121949D01*
X209028Y121784D01*
X208848Y121614D01*
X208672Y121440D01*
X208500Y121262D01*
X208333Y121080D01*
X208170Y120894D01*
X208012Y120704D01*
X207858Y120510D01*
X207710Y120312D01*
X207566Y120111D01*
X207427Y119906D01*
X207293Y119698D01*
X207164Y119487D01*
X207040Y119272D01*
X206922Y119055D01*
X206808Y118835D01*
X206701Y118612D01*
X206598Y118387D01*
X206502Y118159D01*
X206410Y117929D01*
X206325Y117697D01*
X206245Y117463D01*
X206171Y117227D01*
X206102Y116989D01*
X206040Y116750D01*
X205983Y116509D01*
X205932Y116267D01*
X205887Y116024D01*
X205848Y115779D01*
X205815Y115534D01*
X205788Y115288D01*
X205767Y115042D01*
X205752Y114795D01*
X205743Y114547D01*
X205740Y114300D01*
D12*
X222631Y111125D02*
X222631Y99695D01*
X221361Y99695D02*
X223901Y99695D01*
X223901Y111125D02*
X221361Y111125D01*
X231103Y99695D02*
X233643Y99695D01*
X231103Y99695D02*
X231003Y99697D01*
X230904Y99703D01*
X230804Y99713D01*
X230706Y99726D01*
X230607Y99744D01*
X230510Y99765D01*
X230414Y99790D01*
X230318Y99819D01*
X230224Y99852D01*
X230131Y99888D01*
X230040Y99928D01*
X229950Y99972D01*
X229862Y100019D01*
X229776Y100069D01*
X229692Y100123D01*
X229610Y100180D01*
X229531Y100240D01*
X229453Y100304D01*
X229379Y100370D01*
X229307Y100439D01*
X229238Y100511D01*
X229172Y100585D01*
X229108Y100663D01*
X229048Y100742D01*
X228991Y100824D01*
X228937Y100908D01*
X228887Y100994D01*
X228840Y101082D01*
X228796Y101172D01*
X228756Y101263D01*
X228720Y101356D01*
X228687Y101450D01*
X228658Y101546D01*
X228633Y101642D01*
X228612Y101739D01*
X228594Y101838D01*
X228581Y101936D01*
X228571Y102036D01*
X228565Y102135D01*
X228563Y102235D01*
X228563Y108585D01*
X228565Y108685D01*
X228571Y108784D01*
X228581Y108884D01*
X228594Y108982D01*
X228612Y109081D01*
X228633Y109178D01*
X228658Y109274D01*
X228687Y109370D01*
X228720Y109464D01*
X228756Y109557D01*
X228796Y109648D01*
X228840Y109738D01*
X228887Y109826D01*
X228937Y109912D01*
X228991Y109996D01*
X229048Y110078D01*
X229108Y110157D01*
X229172Y110235D01*
X229238Y110309D01*
X229307Y110381D01*
X229379Y110450D01*
X229453Y110516D01*
X229531Y110580D01*
X229610Y110640D01*
X229692Y110697D01*
X229776Y110751D01*
X229862Y110801D01*
X229950Y110848D01*
X230040Y110892D01*
X230131Y110932D01*
X230224Y110968D01*
X230318Y111001D01*
X230414Y111030D01*
X230510Y111055D01*
X230607Y111076D01*
X230706Y111094D01*
X230804Y111107D01*
X230904Y111117D01*
X231003Y111123D01*
X231103Y111125D01*
X233643Y111125D01*
X238125Y108585D02*
X241300Y111125D01*
X241300Y99695D01*
X238125Y99695D02*
X244475Y99695D01*
D10*
X288258Y127299D02*
X288558Y127518D01*
X288852Y127745D01*
X289140Y127979D01*
X289423Y128220D01*
X289700Y128467D01*
X289971Y128722D01*
X290235Y128983D01*
X290493Y129250D01*
X290744Y129523D01*
X290989Y129803D01*
X291227Y130088D01*
X291457Y130379D01*
X291681Y130676D01*
X291897Y130978D01*
X292106Y131285D01*
X292307Y131597D01*
X292501Y131914D01*
X292687Y132236D01*
X292865Y132562D01*
X293035Y132892D01*
X293197Y133226D01*
X293350Y133564D01*
X293496Y133906D01*
X293633Y134251D01*
X293761Y134600D01*
X293881Y134951D01*
X293993Y135306D01*
X294095Y135663D01*
X294190Y136022D01*
X294275Y136383D01*
X294351Y136747D01*
X294419Y137112D01*
X294477Y137479D01*
X294527Y137847D01*
X294568Y138216D01*
X294599Y138586D01*
X294622Y138957D01*
X294635Y139328D01*
X294640Y139700D01*
X294635Y140072D01*
X294622Y140443D01*
X294599Y140815D01*
X294567Y141185D01*
X294527Y141555D01*
X294477Y141923D01*
X294418Y142291D01*
X294351Y142656D01*
X294274Y143020D01*
X294188Y143382D01*
X294094Y143742D01*
X293991Y144099D01*
X293880Y144454D01*
X293759Y144806D01*
X293630Y145155D01*
X293493Y145500D01*
X293347Y145842D01*
X293193Y146181D01*
X293031Y146516D01*
X292861Y146846D01*
X292682Y147172D01*
X292496Y147494D01*
X292302Y147812D01*
X292100Y148124D01*
X291891Y148431D01*
X291674Y148733D01*
X291450Y149030D01*
X291219Y149322D01*
X290981Y149607D01*
X290735Y149887D01*
X290483Y150160D01*
X290225Y150428D01*
X289960Y150688D01*
X289689Y150943D01*
X289411Y151191D01*
X289128Y151431D01*
X288839Y151665D01*
X288544Y151892D01*
X264160Y139700D02*
X264164Y139335D01*
X264177Y138970D01*
X264199Y138606D01*
X264230Y138243D01*
X264269Y137880D01*
X264317Y137518D01*
X264374Y137158D01*
X264439Y136799D01*
X264512Y136441D01*
X264595Y136086D01*
X264685Y135733D01*
X264785Y135381D01*
X264892Y135033D01*
X265008Y134687D01*
X265132Y134344D01*
X265265Y134004D01*
X265405Y133667D01*
X265553Y133334D01*
X265710Y133004D01*
X265874Y132678D01*
X266046Y132356D01*
X266226Y132039D01*
X266413Y131726D01*
X266607Y131417D01*
X266809Y131113D01*
X267019Y130814D01*
X267235Y130520D01*
X267458Y130232D01*
X267688Y129949D01*
X267925Y129671D01*
X268168Y129399D01*
X268418Y129133D01*
X268674Y128873D01*
X268937Y128620D01*
X269205Y128372D01*
X269479Y128132D01*
X269759Y127897D01*
X270044Y127670D01*
X264160Y139700D02*
X264164Y140065D01*
X264177Y140430D01*
X264199Y140794D01*
X264230Y141157D01*
X264269Y141520D01*
X264317Y141882D01*
X264374Y142242D01*
X264439Y142601D01*
X264512Y142959D01*
X264595Y143314D01*
X264685Y143667D01*
X264785Y144019D01*
X264892Y144367D01*
X265008Y144713D01*
X265132Y145056D01*
X265265Y145396D01*
X265405Y145733D01*
X265553Y146066D01*
X265710Y146396D01*
X265874Y146722D01*
X266046Y147044D01*
X266226Y147361D01*
X266413Y147674D01*
X266607Y147983D01*
X266809Y148287D01*
X267019Y148586D01*
X267235Y148880D01*
X267458Y149168D01*
X267688Y149451D01*
X267925Y149729D01*
X268168Y150001D01*
X268418Y150267D01*
X268674Y150527D01*
X268937Y150780D01*
X269205Y151028D01*
X269479Y151268D01*
X269759Y151503D01*
X270044Y151730D01*
D11*
X299720Y139700D02*
X299714Y139206D01*
X299696Y138712D01*
X299666Y138218D01*
X299624Y137725D01*
X299570Y137234D01*
X299504Y136744D01*
X299426Y136256D01*
X299336Y135769D01*
X299235Y135285D01*
X299121Y134804D01*
X298996Y134326D01*
X298860Y133850D01*
X298712Y133379D01*
X298552Y132911D01*
X298381Y132447D01*
X298199Y131987D01*
X298006Y131532D01*
X297802Y131081D01*
X297587Y130636D01*
X297361Y130196D01*
X297124Y129762D01*
X296877Y129334D01*
X296620Y128912D01*
X296352Y128496D01*
X296074Y128087D01*
X295787Y127685D01*
X295490Y127289D01*
X295183Y126902D01*
X294867Y126521D01*
X294542Y126149D01*
X294207Y125784D01*
X293864Y125428D01*
X293513Y125081D01*
X293153Y124741D01*
X292785Y124411D01*
X292409Y124090D01*
X299720Y139700D02*
X299714Y140188D01*
X299697Y140675D01*
X299667Y141162D01*
X299626Y141649D01*
X299574Y142134D01*
X299509Y142618D01*
X299433Y143100D01*
X299346Y143580D01*
X299247Y144058D01*
X299137Y144533D01*
X299015Y145006D01*
X298882Y145475D01*
X298737Y145942D01*
X298582Y146404D01*
X298415Y146863D01*
X298238Y147318D01*
X298049Y147768D01*
X297850Y148213D01*
X297640Y148654D01*
X297420Y149090D01*
X297189Y149520D01*
X296948Y149944D01*
X296697Y150362D01*
X296436Y150775D01*
X296165Y151181D01*
X295885Y151580D01*
X295595Y151973D01*
X295295Y152358D01*
X294986Y152736D01*
X294669Y153107D01*
X294342Y153469D01*
X294007Y153824D01*
X293664Y154171D01*
X293312Y154509D01*
X292953Y154839D01*
X292585Y155160D01*
X292210Y155473D01*
X291827Y155776D01*
X291438Y156070D01*
X291041Y156354D01*
X290638Y156629D01*
X290228Y156894D01*
X289812Y157149D01*
X289390Y157394D01*
X288962Y157629D01*
X259080Y139700D02*
X259086Y139210D01*
X259104Y138720D01*
X259133Y138231D01*
X259175Y137742D01*
X259228Y137255D01*
X259292Y136769D01*
X259369Y136285D01*
X259457Y135803D01*
X259557Y135323D01*
X259668Y134845D01*
X259791Y134371D01*
X259926Y133899D01*
X260071Y133431D01*
X260228Y132967D01*
X260396Y132506D01*
X260575Y132050D01*
X260765Y131598D01*
X260966Y131151D01*
X261178Y130709D01*
X261400Y130272D01*
X261632Y129840D01*
X261875Y129414D01*
X262129Y128995D01*
X262392Y128581D01*
X262665Y128174D01*
X262948Y127774D01*
X263241Y127380D01*
X263542Y126994D01*
X263854Y126615D01*
X264174Y126244D01*
X264503Y125881D01*
X264840Y125525D01*
X265187Y125178D01*
X265541Y124840D01*
X265904Y124510D01*
X266274Y124188D01*
X259080Y139700D02*
X259086Y140197D01*
X259104Y140694D01*
X259135Y141190D01*
X259177Y141685D01*
X259232Y142179D01*
X259298Y142672D01*
X259377Y143162D01*
X259468Y143651D01*
X259570Y144137D01*
X259685Y144621D01*
X259811Y145101D01*
X259949Y145579D01*
X260098Y146053D01*
X260259Y146523D01*
X260432Y146989D01*
X260616Y147451D01*
X260811Y147908D01*
X261017Y148360D01*
X261234Y148807D01*
X261463Y149248D01*
X261701Y149684D01*
X261951Y150114D01*
X262211Y150537D01*
X262481Y150955D01*
X262761Y151365D01*
X263051Y151768D01*
X263351Y152165D01*
X263661Y152553D01*
X263980Y152934D01*
X264308Y153307D01*
X264645Y153672D01*
X264991Y154029D01*
X265346Y154377D01*
X265709Y154716D01*
X266080Y155047D01*
X266460Y155368D01*
X266847Y155680D01*
X267241Y155982D01*
X267643Y156274D01*
X268052Y156557D01*
X268467Y156829D01*
X268890Y157092D01*
X269318Y157343D01*
D12*
X283845Y82067D02*
X295275Y82067D01*
X295275Y87147D01*
X295275Y91973D02*
X295275Y97053D01*
X295275Y91973D02*
X283845Y91973D01*
X283845Y97053D01*
X288925Y95783D02*
X288925Y91973D01*
X283845Y101854D02*
X295275Y101854D01*
X283845Y101854D02*
X283845Y105029D01*
X283847Y105140D01*
X283853Y105250D01*
X283862Y105361D01*
X283876Y105471D01*
X283893Y105580D01*
X283914Y105689D01*
X283939Y105797D01*
X283968Y105904D01*
X284000Y106010D01*
X284036Y106115D01*
X284076Y106218D01*
X284119Y106320D01*
X284166Y106421D01*
X284217Y106520D01*
X284270Y106617D01*
X284327Y106711D01*
X284388Y106804D01*
X284451Y106895D01*
X284518Y106984D01*
X284588Y107070D01*
X284661Y107153D01*
X284736Y107235D01*
X284814Y107313D01*
X284896Y107388D01*
X284979Y107461D01*
X285065Y107531D01*
X285154Y107598D01*
X285245Y107661D01*
X285338Y107722D01*
X285433Y107779D01*
X285529Y107832D01*
X285628Y107883D01*
X285729Y107930D01*
X285831Y107973D01*
X285934Y108013D01*
X286039Y108049D01*
X286145Y108081D01*
X286252Y108110D01*
X286360Y108135D01*
X286469Y108156D01*
X286578Y108173D01*
X286688Y108187D01*
X286799Y108196D01*
X286909Y108202D01*
X287020Y108204D01*
X292100Y108204D01*
X292211Y108202D01*
X292321Y108196D01*
X292432Y108187D01*
X292542Y108173D01*
X292651Y108156D01*
X292760Y108135D01*
X292868Y108110D01*
X292975Y108081D01*
X293081Y108049D01*
X293186Y108013D01*
X293289Y107973D01*
X293391Y107930D01*
X293492Y107883D01*
X293591Y107832D01*
X293688Y107779D01*
X293782Y107722D01*
X293875Y107661D01*
X293966Y107598D01*
X294055Y107531D01*
X294141Y107461D01*
X294224Y107388D01*
X294306Y107313D01*
X294384Y107235D01*
X294459Y107153D01*
X294532Y107070D01*
X294602Y106984D01*
X294669Y106895D01*
X294732Y106804D01*
X294793Y106711D01*
X294850Y106617D01*
X294903Y106520D01*
X294954Y106421D01*
X295001Y106320D01*
X295044Y106218D01*
X295084Y106115D01*
X295120Y106010D01*
X295152Y105904D01*
X295181Y105797D01*
X295206Y105689D01*
X295227Y105580D01*
X295244Y105471D01*
X295258Y105361D01*
X295267Y105250D01*
X295273Y105140D01*
X295275Y105029D01*
X295275Y101854D01*
X286385Y113665D02*
X283845Y116840D01*
X295275Y116840D01*
X295275Y113665D02*
X295275Y120015D01*
D14*
X139700Y201930D02*
X139700Y204470D01*
D12*
X127381Y182499D02*
X115951Y182499D01*
X115951Y185674D01*
X115953Y185785D01*
X115959Y185895D01*
X115968Y186006D01*
X115982Y186116D01*
X115999Y186225D01*
X116020Y186334D01*
X116045Y186442D01*
X116074Y186549D01*
X116106Y186655D01*
X116142Y186760D01*
X116182Y186863D01*
X116225Y186965D01*
X116272Y187066D01*
X116323Y187165D01*
X116376Y187262D01*
X116433Y187356D01*
X116494Y187449D01*
X116557Y187540D01*
X116624Y187629D01*
X116694Y187715D01*
X116767Y187798D01*
X116842Y187880D01*
X116920Y187958D01*
X117002Y188033D01*
X117085Y188106D01*
X117171Y188176D01*
X117260Y188243D01*
X117351Y188306D01*
X117444Y188367D01*
X117539Y188424D01*
X117635Y188477D01*
X117734Y188528D01*
X117835Y188575D01*
X117937Y188618D01*
X118040Y188658D01*
X118145Y188694D01*
X118251Y188726D01*
X118358Y188755D01*
X118466Y188780D01*
X118575Y188801D01*
X118684Y188818D01*
X118794Y188832D01*
X118905Y188841D01*
X119015Y188847D01*
X119126Y188849D01*
X119237Y188847D01*
X119347Y188841D01*
X119458Y188832D01*
X119568Y188818D01*
X119677Y188801D01*
X119786Y188780D01*
X119894Y188755D01*
X120001Y188726D01*
X120107Y188694D01*
X120212Y188658D01*
X120315Y188618D01*
X120417Y188575D01*
X120518Y188528D01*
X120617Y188477D01*
X120714Y188424D01*
X120808Y188367D01*
X120901Y188306D01*
X120992Y188243D01*
X121081Y188176D01*
X121167Y188106D01*
X121250Y188033D01*
X121332Y187958D01*
X121410Y187880D01*
X121485Y187798D01*
X121558Y187715D01*
X121628Y187629D01*
X121695Y187540D01*
X121758Y187449D01*
X121819Y187356D01*
X121876Y187262D01*
X121929Y187165D01*
X121980Y187066D01*
X122027Y186965D01*
X122070Y186863D01*
X122110Y186760D01*
X122146Y186655D01*
X122178Y186549D01*
X122207Y186442D01*
X122232Y186334D01*
X122253Y186225D01*
X122270Y186116D01*
X122284Y186006D01*
X122293Y185895D01*
X122299Y185785D01*
X122301Y185674D01*
X122301Y182499D01*
X122301Y186309D02*
X127381Y188849D01*
X118491Y193846D02*
X115951Y197021D01*
X127381Y197021D01*
X127381Y193846D02*
X127381Y200196D01*
D14*
X139700Y166370D02*
X139700Y163830D01*
D12*
X127381Y144399D02*
X115951Y144399D01*
X115951Y147574D01*
X115953Y147685D01*
X115959Y147795D01*
X115968Y147906D01*
X115982Y148016D01*
X115999Y148125D01*
X116020Y148234D01*
X116045Y148342D01*
X116074Y148449D01*
X116106Y148555D01*
X116142Y148660D01*
X116182Y148763D01*
X116225Y148865D01*
X116272Y148966D01*
X116323Y149065D01*
X116376Y149162D01*
X116433Y149256D01*
X116494Y149349D01*
X116557Y149440D01*
X116624Y149529D01*
X116694Y149615D01*
X116767Y149698D01*
X116842Y149780D01*
X116920Y149858D01*
X117002Y149933D01*
X117085Y150006D01*
X117171Y150076D01*
X117260Y150143D01*
X117351Y150206D01*
X117444Y150267D01*
X117539Y150324D01*
X117635Y150377D01*
X117734Y150428D01*
X117835Y150475D01*
X117937Y150518D01*
X118040Y150558D01*
X118145Y150594D01*
X118251Y150626D01*
X118358Y150655D01*
X118466Y150680D01*
X118575Y150701D01*
X118684Y150718D01*
X118794Y150732D01*
X118905Y150741D01*
X119015Y150747D01*
X119126Y150749D01*
X119237Y150747D01*
X119347Y150741D01*
X119458Y150732D01*
X119568Y150718D01*
X119677Y150701D01*
X119786Y150680D01*
X119894Y150655D01*
X120001Y150626D01*
X120107Y150594D01*
X120212Y150558D01*
X120315Y150518D01*
X120417Y150475D01*
X120518Y150428D01*
X120617Y150377D01*
X120714Y150324D01*
X120808Y150267D01*
X120901Y150206D01*
X120992Y150143D01*
X121081Y150076D01*
X121167Y150006D01*
X121250Y149933D01*
X121332Y149858D01*
X121410Y149780D01*
X121485Y149698D01*
X121558Y149615D01*
X121628Y149529D01*
X121695Y149440D01*
X121758Y149349D01*
X121819Y149256D01*
X121876Y149162D01*
X121929Y149065D01*
X121980Y148966D01*
X122027Y148865D01*
X122070Y148763D01*
X122110Y148660D01*
X122146Y148555D01*
X122178Y148449D01*
X122207Y148342D01*
X122232Y148234D01*
X122253Y148125D01*
X122270Y148016D01*
X122284Y147906D01*
X122293Y147795D01*
X122299Y147685D01*
X122301Y147574D01*
X122301Y144399D01*
X122301Y148209D02*
X127381Y150749D01*
X118809Y162097D02*
X118705Y162095D01*
X118600Y162089D01*
X118496Y162080D01*
X118393Y162067D01*
X118290Y162049D01*
X118188Y162029D01*
X118086Y162004D01*
X117986Y161976D01*
X117886Y161944D01*
X117788Y161908D01*
X117691Y161869D01*
X117596Y161827D01*
X117502Y161781D01*
X117410Y161731D01*
X117320Y161679D01*
X117232Y161623D01*
X117146Y161563D01*
X117062Y161501D01*
X116981Y161436D01*
X116902Y161368D01*
X116825Y161296D01*
X116752Y161223D01*
X116680Y161146D01*
X116612Y161067D01*
X116547Y160986D01*
X116485Y160902D01*
X116425Y160816D01*
X116369Y160728D01*
X116317Y160638D01*
X116267Y160546D01*
X116221Y160452D01*
X116179Y160357D01*
X116140Y160260D01*
X116104Y160162D01*
X116072Y160062D01*
X116044Y159962D01*
X116019Y159860D01*
X115999Y159758D01*
X115981Y159655D01*
X115968Y159552D01*
X115959Y159448D01*
X115953Y159343D01*
X115951Y159239D01*
X115953Y159121D01*
X115959Y159002D01*
X115968Y158884D01*
X115981Y158767D01*
X115999Y158650D01*
X116019Y158533D01*
X116044Y158417D01*
X116072Y158302D01*
X116105Y158189D01*
X116140Y158076D01*
X116180Y157964D01*
X116222Y157854D01*
X116269Y157745D01*
X116319Y157637D01*
X116372Y157532D01*
X116429Y157428D01*
X116489Y157326D01*
X116552Y157226D01*
X116619Y157128D01*
X116688Y157032D01*
X116761Y156939D01*
X116837Y156848D01*
X116915Y156759D01*
X116997Y156673D01*
X117081Y156590D01*
X117167Y156509D01*
X117257Y156432D01*
X117348Y156357D01*
X117442Y156285D01*
X117539Y156216D01*
X117637Y156151D01*
X117738Y156088D01*
X117841Y156029D01*
X117945Y155973D01*
X118051Y155921D01*
X118159Y155872D01*
X118268Y155827D01*
X118379Y155785D01*
X118491Y155747D01*
X121031Y161144D02*
X120956Y161220D01*
X120877Y161295D01*
X120796Y161366D01*
X120712Y161435D01*
X120626Y161500D01*
X120538Y161562D01*
X120448Y161622D01*
X120356Y161678D01*
X120261Y161731D01*
X120165Y161780D01*
X120067Y161826D01*
X119968Y161869D01*
X119867Y161908D01*
X119765Y161943D01*
X119662Y161975D01*
X119558Y162003D01*
X119453Y162028D01*
X119346Y162049D01*
X119240Y162066D01*
X119133Y162079D01*
X119025Y162088D01*
X118917Y162094D01*
X118809Y162096D01*
X121031Y161144D02*
X127381Y155746D01*
X127381Y162096D01*
D14*
X279382Y189230D02*
X279418Y191770D01*
D12*
X283249Y211233D02*
X293996Y215124D01*
X295077Y212139D01*
X295076Y212139D02*
X295112Y212034D01*
X295145Y211928D01*
X295173Y211821D01*
X295198Y211713D01*
X295219Y211604D01*
X295236Y211494D01*
X295249Y211384D01*
X295259Y211274D01*
X295264Y211163D01*
X295266Y211052D01*
X295264Y210942D01*
X295258Y210831D01*
X295248Y210721D01*
X295234Y210611D01*
X295217Y210501D01*
X295195Y210392D01*
X295170Y210285D01*
X295141Y210178D01*
X295109Y210072D01*
X295073Y209967D01*
X295033Y209863D01*
X294989Y209762D01*
X294942Y209661D01*
X294892Y209563D01*
X294838Y209466D01*
X294781Y209371D01*
X294720Y209278D01*
X294656Y209187D01*
X294590Y209099D01*
X294520Y209013D01*
X294447Y208929D01*
X294371Y208848D01*
X294293Y208770D01*
X294211Y208695D01*
X294128Y208622D01*
X294041Y208553D01*
X293953Y208486D01*
X293862Y208423D01*
X293769Y208363D01*
X293674Y208306D01*
X293577Y208252D01*
X293478Y208202D01*
X293377Y208155D01*
X293275Y208112D01*
X293172Y208073D01*
X293067Y208037D01*
X292961Y208004D01*
X292854Y207976D01*
X292746Y207951D01*
X292637Y207930D01*
X292527Y207913D01*
X292417Y207900D01*
X292307Y207890D01*
X292196Y207885D01*
X292085Y207883D01*
X291975Y207885D01*
X291864Y207891D01*
X291754Y207901D01*
X291644Y207915D01*
X291534Y207932D01*
X291425Y207954D01*
X291318Y207979D01*
X291211Y208008D01*
X291105Y208040D01*
X291000Y208076D01*
X290896Y208116D01*
X290795Y208160D01*
X290694Y208207D01*
X290596Y208257D01*
X290499Y208311D01*
X290404Y208368D01*
X290311Y208429D01*
X290220Y208493D01*
X290132Y208559D01*
X290046Y208629D01*
X289962Y208702D01*
X289881Y208778D01*
X289803Y208856D01*
X289728Y208938D01*
X289655Y209021D01*
X289586Y209108D01*
X289519Y209196D01*
X289456Y209287D01*
X289396Y209380D01*
X289339Y209475D01*
X289285Y209572D01*
X289235Y209671D01*
X289188Y209772D01*
X289145Y209874D01*
X289106Y209977D01*
X288025Y212963D01*
X289322Y209380D02*
X285410Y205263D01*
X287111Y200564D02*
X288192Y197578D01*
X288231Y197475D01*
X288274Y197373D01*
X288321Y197272D01*
X288371Y197173D01*
X288425Y197076D01*
X288482Y196981D01*
X288542Y196888D01*
X288605Y196797D01*
X288672Y196709D01*
X288741Y196622D01*
X288814Y196539D01*
X288889Y196457D01*
X288967Y196379D01*
X289048Y196303D01*
X289132Y196230D01*
X289218Y196160D01*
X289306Y196094D01*
X289397Y196030D01*
X289490Y195969D01*
X289585Y195912D01*
X289682Y195858D01*
X289780Y195808D01*
X289881Y195761D01*
X289982Y195717D01*
X290086Y195677D01*
X290191Y195641D01*
X290297Y195609D01*
X290404Y195580D01*
X290511Y195555D01*
X290620Y195533D01*
X290730Y195516D01*
X290840Y195502D01*
X290950Y195492D01*
X291061Y195486D01*
X291171Y195484D01*
X291282Y195486D01*
X291393Y195491D01*
X291503Y195501D01*
X291613Y195514D01*
X291723Y195531D01*
X291832Y195552D01*
X291940Y195577D01*
X292047Y195605D01*
X292153Y195638D01*
X292258Y195674D01*
X292361Y195713D01*
X292463Y195756D01*
X292564Y195803D01*
X292663Y195853D01*
X292760Y195907D01*
X292855Y195964D01*
X292948Y196024D01*
X293039Y196087D01*
X293127Y196154D01*
X293214Y196223D01*
X293297Y196296D01*
X293379Y196371D01*
X293457Y196449D01*
X293533Y196530D01*
X293606Y196614D01*
X293676Y196700D01*
X293742Y196788D01*
X293806Y196879D01*
X293867Y196972D01*
X293924Y197067D01*
X293978Y197164D01*
X294028Y197262D01*
X294075Y197363D01*
X294119Y197464D01*
X294159Y197568D01*
X294195Y197673D01*
X294227Y197779D01*
X294256Y197886D01*
X294281Y197993D01*
X294303Y198102D01*
X294320Y198212D01*
X294334Y198322D01*
X294344Y198432D01*
X294350Y198543D01*
X294352Y198653D01*
X294350Y198764D01*
X294345Y198875D01*
X294335Y198985D01*
X294322Y199095D01*
X294305Y199205D01*
X294284Y199314D01*
X294259Y199422D01*
X294231Y199529D01*
X294198Y199635D01*
X294162Y199740D01*
X299155Y200872D02*
X297858Y204454D01*
X299155Y200872D02*
X299187Y200777D01*
X299216Y200682D01*
X299240Y200585D01*
X299261Y200487D01*
X299278Y200389D01*
X299291Y200290D01*
X299300Y200191D01*
X299306Y200091D01*
X299307Y199991D01*
X299304Y199892D01*
X299298Y199792D01*
X299288Y199693D01*
X299273Y199594D01*
X299255Y199496D01*
X299233Y199399D01*
X299207Y199303D01*
X299178Y199207D01*
X299145Y199113D01*
X299108Y199021D01*
X299067Y198930D01*
X299023Y198840D01*
X298976Y198752D01*
X298925Y198667D01*
X298870Y198583D01*
X298813Y198501D01*
X298752Y198422D01*
X298688Y198346D01*
X298622Y198271D01*
X298552Y198200D01*
X298480Y198131D01*
X298405Y198066D01*
X298327Y198003D01*
X298247Y197943D01*
X298165Y197886D01*
X298081Y197833D01*
X297995Y197783D01*
X297906Y197737D01*
X297816Y197694D01*
X297725Y197654D01*
X297632Y197619D01*
X297537Y197587D01*
X297442Y197558D01*
X297345Y197534D01*
X297247Y197513D01*
X297149Y197496D01*
X297050Y197483D01*
X296951Y197474D01*
X296851Y197468D01*
X296751Y197467D01*
X296652Y197470D01*
X296552Y197476D01*
X296453Y197486D01*
X296354Y197501D01*
X296256Y197519D01*
X296159Y197541D01*
X296063Y197567D01*
X295967Y197596D01*
X295873Y197629D01*
X295781Y197666D01*
X295690Y197707D01*
X295600Y197751D01*
X295512Y197798D01*
X295427Y197849D01*
X295343Y197904D01*
X295262Y197961D01*
X295182Y198022D01*
X295106Y198086D01*
X295031Y198152D01*
X294960Y198222D01*
X294891Y198294D01*
X294826Y198369D01*
X294763Y198447D01*
X294703Y198527D01*
X294646Y198609D01*
X294593Y198693D01*
X294543Y198779D01*
X294497Y198868D01*
X294454Y198958D01*
X294414Y199049D01*
X294379Y199142D01*
X294379Y199143D02*
X293514Y201531D01*
M02*
